<?xml version="1.0" encoding="iso-8859-1"?>
<!-- Generator: Adobe Illustrator 18.1.1, SVG Export Plug-In . SVG Version: 6.00 Build 0)  -->
<svg xmlns="http://www.w3.org/2000/svg" xmlns:xlink="http://www.w3.org/1999/xlink" version="1.1" id="Capa_1" x="0px" y="0px" viewBox="0 0 36.263 36.263" style="enable-background:new 0 0 36.263 36.263;" xml:space="preserve" width="512px" height="512px">
<g>
	<g>
		<path d="M34.375,27.89c0,0,0.742-12.236,0-13.725c-0.738-1.487-3.38-2.55-3.38-2.55H30.93L28.997,1.002    c-11.913-2.255-21.896,0-21.896,0L5.168,11.616H4.91c0,0-2.156,0.658-3.381,2.55c-1.224,1.896,0,13.725,0,13.725h32.846V27.89z     M18.756,21.684h6.86v2.021h-6.86V21.684z M19.722,19.84v-2.02h6.861v2.02H19.722z M10.543,21.684h6.862v2.021h-6.862V21.684z     M9.578,17.821h6.861v2.02H9.578V17.821z M8.871,17.821v6.368h-4.83v-6.368H8.871z M28.798,10.254H7.299l1.756-7.891H27.04    L28.798,10.254z M32.38,24.189h-4.831v-6.368h4.831V24.189z" fill="#FFFFFF"/>
		<polygon points="34.706,29.018 34.706,31.916 29.802,31.916 29.802,32.56 7.261,32.56 7.261,31.916 0.987,31.916 0.987,29.018       " fill="#FFFFFF"/>
		<rect x="0.987" y="32.56" width="5.31" height="3.703" fill="#FFFFFF"/>
		<rect x="29.968" y="32.56" width="5.311" height="3.703" fill="#FFFFFF"/>
		<rect x="1.952" y="6.556" width="2.654" height="4.83" fill="#FFFFFF"/>
		<rect x="31.297" y="6.556" width="2.654" height="4.83" fill="#FFFFFF"/>
	</g>
	<g>
	</g>
	<g>
	</g>
	<g>
	</g>
	<g>
	</g>
	<g>
	</g>
	<g>
	</g>
	<g>
	</g>
	<g>
	</g>
	<g>
	</g>
	<g>
	</g>
	<g>
	</g>
	<g>
	</g>
	<g>
	</g>
	<g>
	</g>
	<g>
	</g>
</g>
<g>
</g>
<g>
</g>
<g>
</g>
<g>
</g>
<g>
</g>
<g>
</g>
<g>
</g>
<g>
</g>
<g>
</g>
<g>
</g>
<g>
</g>
<g>
</g>
<g>
</g>
<g>
</g>
<g>
</g>
</svg>
